<svg xmlns="http://www.w3.org/2000/svg" xmlns:xlink="http://www.w3.org/1999/xlink" fill="none" version="1.1" width="156.509765625" height="156.509765625" viewBox="0 0 156.509765625 156.509765625"><defs><mask id="master_svg0_406_0492"><g style="mix-blend-mode:passthrough"><path d="M0,0L156.51,0L156.51,156.51L0,156.51L0,0Z" fill-rule="evenodd" fill="#FFFFFF" fill-opacity="1"/></g></mask></defs><g style="mix-blend-mode:passthrough"><g><g style="mix-blend-mode:passthrough"><path d="M100.63276177215576,25.399456185913085C100.63276177215576,45.29025618591309,116.94726177215576,61.41485618591309,137.07326177215577,61.41485618591309C140.45926177215577,61.41485618591309,143.73226177215577,60.94885618591309,146.84326177215576,60.09505618591309C148.40226177215575,65.92005618591308,149.19926177215575,71.89405618591309,149.19926177215575,77.86315618591308C149.19926177215575,93.75365618591309,143.65626177215577,109.11435618591308,133.72626177215577,121.38435618591309C130.27126177215575,125.38735618591309,122.30626177215576,132.8523561859131,108.80526177215576,136.2223561859131C106.25636177215576,136.81335618591308,103.91886177215576,137.11635618591308,101.78906177215576,137.11635618591308C95.74626177215576,137.11635618591308,91.33276177215576,134.73635618591308,88.20526177215577,129.9793561859131C81.58956177215576,119.91435618591309,67.89776177215576,107.57975618591308,40.24406177215576,105.97475618591308C38.38236177215576,105.86675618591309,36.640161772155764,105.64185618591308,34.98656177215577,105.33595618591309C34.88986177215576,105.32135618591309,34.80266177215576,105.31125618591308,34.70426177215576,105.29595618591308C3.6140917721557617,100.40815618591309,8.519501772155762,72.67695618591308,8.519501772155762,72.67695618591308L8.52118077215576,72.67795618591309C9.778561772155761,55.756356185913084,17.15557177215576,40.028456185913086,29.520261772155763,28.075656185913086C42.75266177215576,15.282686185913086,60.237361772155765,8.237356185913086,78.75246177215575,8.237356185913086C87.14806177215576,8.237356185913086,95.33956177215576,9.688016185913085,103.05096177215576,12.497216185913086C101.49436177215576,16.503986185913085,100.63276177215576,20.851156185913084,100.63276177215576,25.399456185913085ZM36.05766177215576,36.77345618591309L35.472361772155764,37.509356185913084C30.604361772155762,41.127056185913084,24.768761772155763,51.97505618591308,24.768761772155763,51.97505618591308C24.535661772155763,52.167556185913085,24.270761772155762,52.295556185913085,24.00726177215576,52.39235618591309C22.45226177215576,52.903656185913086,20.870461772155764,52.03945618591309,20.42966177215576,50.47205618591308C20.311861772155762,49.992056185913086,20.28336177215576,49.510856185913084,20.370661772155763,49.063956185913085L20.40066177215576,48.96725618591309C20.459561772155762,48.71065618591309,20.51826177215576,48.487556185913085,20.63556177215576,48.26395618591309C22.77596177215576,42.342656185913086,26.441261772155762,37.222156185913086,31.220161772155762,33.54185618591309C31.659461772155762,33.126056185913086,32.15806177215576,32.77275618591308,32.714661772155765,32.549656185913086C34.26966177215576,32.03715618591309,35.88196177215576,32.90135618591309,36.32276177215576,34.50155618591309C36.527161772155765,35.27045618591309,36.438561772155765,36.07045618591309,36.05766177215576,36.77345618591309ZM56.56726177215576,78.71845618591308C56.56726177215576,90.93255618591309,66.50426177215576,100.86925618591309,78.71796177215576,100.86925618591309C90.93256177215576,100.86925618591309,100.86966177215577,90.93255618591309,100.86966177215577,78.71845618591308C100.86966177215577,66.50435618591308,90.93256177215576,56.56705618591309,78.71796177215576,56.56705618591309C66.50426177215576,56.56705618591309,56.56726177215576,66.50435618591308,56.56726177215576,78.71845618591308ZM140.86626177215575,100.85795618591308C140.97326177215575,100.64805618591309,141.04426177215575,100.40185618591309,141.07926177215577,100.15765618591308L141.11626177215575,100.05355618591308C141.18826177215576,99.63325618591308,141.11626177215575,99.14295618591309,140.97326177215575,98.72265618591308C140.36326177215577,97.21885618591308,138.60526177215576,96.44825618591308,137.06326177215576,97.04315618591309C136.77626177215575,97.1489561859131,136.52626177215575,97.28895618591308,136.27326177215576,97.46355618591309C136.27326177215576,97.46355618591309,130.82126177215576,108.31035618591308,125.90726177215576,112.09035618591308L125.33426177215576,112.82435618591309C124.97526177215576,113.52335618591309,124.93826177215576,114.32835618591308,125.22626177215577,115.06435618591308C125.83526177215576,116.60335618591309,127.59426177215576,117.37235618591309,129.17226177215576,116.77835618591308C129.74626177215578,116.53335618591309,130.24926177215576,116.18335618591308,130.67826177215576,115.72835618591309C135.52126177215575,111.87935618591308,139.07226177215577,106.70135618591308,140.86626177215575,100.85795618591308Z" fill-rule="evenodd" fill="#A261FF" fill-opacity="1"/></g><g style="mix-blend-mode:passthrough"></g></g><g mask="url(#master_svg0_406_0492)"><g style="mix-blend-mode:passthrough"><path d="M78.2545,156.51C35.1051,156.51,0,121.405,0,78.255C0,35.1054,35.1051,0,78.2545,0C89.0502,0,99.6261,2.23606,109.368,6.46389C109.368,6.46389,110.424,7.15871,112.208,8.44558C110.014,12.6408,108.769,17.4103,108.769,22.4735C108.769,23.0566,108.789,23.635,108.822,24.2103C108.832,24.3812,108.848,24.5504,108.861,24.7206C108.891,25.132,108.927,25.5418,108.973,25.9484C108.994,26.129,109.018,26.3085,109.042,26.4882C109.096,26.899,109.159,27.307,109.229,27.7123C109.255,27.8635,109.281,28.0148,109.31,28.1652C109.402,28.6504,109.506,29.1313,109.621,29.6079C109.636,29.669,109.648,29.731,109.663,29.7921C112.652,41.8564,122.857,51.0656,135.436,52.5855C135.501,52.5935,135.565,52.6027,135.631,52.6104C136.108,52.6649,136.589,52.7071,137.072,52.7393C137.18,52.7467,137.286,52.7576,137.394,52.7637C137.963,52.7955,138.534,52.8151,139.111,52.8151C143.325,52.8151,147.33,51.9421,150.976,50.3889C151.501,51.4159,152.009,52.4494,152.476,53.4958C155.146,61.477,156.51,69.7833,156.51,78.255C156.51,121.405,121.405,156.51,78.2545,156.51ZM78.2544,153.527C36.7496,153.527,2.98242,119.76,2.98242,78.255C2.98242,36.7494,36.7496,2.98242,78.2544,2.98242C88.5959,2.98242,98.7243,5.12647,108.064,9.16138C106.305,13.2489,105.326,17.7483,105.326,22.4734C105.326,41.1023,120.482,56.258,139.111,56.258C142.803,56.258,146.356,55.6541,149.684,54.5542C152.226,62.1957,153.527,70.146,153.527,78.255C153.527,119.76,119.76,153.527,78.2544,153.527Z" fill-rule="evenodd" fill="#A261FF" fill-opacity="1"/></g></g></g></svg>